<?xml version="1.0" encoding="UTF-8"?>
<svg version="1.1" viewBox="0 0 1524 1524" width="1524" height="1524" xmlns="http://www.w3.org/2000/svg">
  <path class="m" transform="translate(633,499)" d="m0 0 9 1 4 4 17 41 80 192 18 43v2h2l1-5 36-86 20-48 54-129 6-12 5-3h6l6 4 2 5-1 7-11 27h68l4 16 21 99 25 117 41 192 3 16h-97l-8-36-28-132-17-80v-3h-2l-3 9-18 43-20 48-17 41-40 96-5 10h-65l-16-38-51-123-15-36-17-41-3-9h-2l-2 12-24 113-25 117-2 9h-97l5-26 24-112 38-178 26-122 1-2h68l-12-30 1-7 5-5z" 
    fill="#0D2149"/>
  <path transform="translate(754,271)" d="m0 0h18l19 3 20 6 17 8 12 8 9 7 9 8 7 9 10 13 9 17 5 14 4 17 1 7v29l-4 20-5 15-8 16-7 11-8 10-11 11-10 8h-2v2l-17 10-17 7-14 4-13 2h-31l-26-6-19-8-13-8-13-10-11-11-11-14-10-17-6-15-5-21-1-7v-27l3-17 5-16 7-16 8-13h2l2-5 9-10 5-5 12-10 13-9 19-9 10-3 18-4z" 
    fill="#E51D35"/>
  <path transform="translate(633,499)" d="m0 0 9 1 4 4 17 41 80 192 18 43v2h2l1-5 36-86 20-48 54-129 6-12 5-3h6l6 4 2 5-1 7-16 39-36 86-20 48-54 129-6 5h-9l-5-5-10-23-95-228-16-39-6-15 1-7 5-5z" 
    fill="#C20215"/>
  <path transform="translate(857,312)" d="m0 0 5 5 7 8 7 10 8 15 5 14 4 17 1 7v29l-4 20-5 15-8 16-7 11-3 3-7-8-10-10-8-7-24-24-2-4h3l1-13v-37l-28-1 6-7z" 
    fill="#CE283D"/>
  <path transform="translate(746,230)" d="m0 0h34l7 2 4 5v8l-3 5-4 2h-30l-17 2-17 4-19 7-17 9-14 10-14 12-9 10-10 14-8 14-7 16-5 16-5 25-5 4-7 1-6-3-3-7 3-21 6-21 9-21 10-17 10-13 11-12 10-10 13-10 16-10 21-10 18-6 20-4z" 
    fill="#C30316"/>
  <path transform="translate(1105,914)" d="m0 0h16l11 4 9 7 6 8 4 10 1 13-2 9-5 10-9 9-10 5-9 2h-8l-11-3-10-6-8-9-4-9-1-4v-16l4-10 4-6 5-5 5-4 8-4z" 
    fill="#208AAE"/>
  <path transform="translate(737,274)" d="m0 0h3v103l-4-2-65-65 4-5 14-11 11-7 17-8 10-3z" 
    fill="#fff"/>
  <path transform="translate(635,429)" d="m0 0h103l-2 4-63 63-4-2-9-10-10-14-8-16-5-14-2-7z" 
    fill="#fff"/>
  <path transform="translate(857,312)" d="m0 0 5 5 7 8 7 10 8 15 5 14 3 14h-100l6-7z" 
    fill="#fff"/>
  <path transform="translate(791,433)" d="m0 0 4 2 40 40 7 8 13 12-4 5-10 8h-2v2l-17 10-17 7-14 3z" 
    fill="#fff"/>
  <path transform="translate(791,275)" d="m0 0 17 4 16 7 15 9 4 5-27 27-7 8-12 12-6 4z" 
    fill="#fff"/>
  <path transform="translate(738,457)" d="m0 0h2v74l-11-2-13-4-16-7-11-7-3-3 8-7z" 
    fill="#fff"/>
  <path transform="translate(816,429)" d="m0 0h75l-1 8-5 15-8 16-7 11-3 3-7-8-10-10-8-7-24-24z" 
    fill="#fff"/>
  <path class="name" transform="translate(489,1050)" d="m0 0h9l8 11 18 27 4-4 8-12 15-22h9v76h-8v-60l-5 5-22 33-4-5-16-23-6-9-1 59h-9z" 
    fill="#10254F"/>
  <path class="name" transform="translate(819,1071)" d="m0 0h11l8 4 3 3v2h2v-8h8v57l-4 9-5 6-8 4-5 1h-9l-12-3-4-3 3-6 9 3 5 1h7l8-3 4-5 2-5v-11l-7 6-4 2h-13l-8-4-7-8-3-10v-9l3-11 8-9zm3 7-6 3-5 6-2 5v12l4 8 6 5 2 1h11l8-7 3-8v-10l-3-8-7-6-2-1z" 
    fill="#112752"/>
  <path class="name" transform="translate(670,1050)" d="m0 0h44l1 1v7h-36v25h32v8h-32v27h36v8h-45z" 
    fill="#112853"/>
  <path class="name" transform="translate(637,1201)" d="m0 0h7l9 3 7 6 4 8 1 3v10h-42l3 10 5 5 6 3h10l7-4 3-4 5 1 2 1-1 4-4 5-10 5h-15l-10-5-6-7-3-8v-15l4-10 7-7zm-2 8-6 4-4 5-1 6h32l-1-7-6-7-2-1z" 
    fill="#112852"/>
  <path class="name" transform="translate(988,1049)" d="m0 0h8v30l7-6 5-2h11l7 3 5 5 3 7v40h-8l-1-37-3-6v-2l-8-2-9 1-5 5-3 8-1 33h-8z" 
    fill="#112752"/>
  <path transform="translate(818,434)" d="m0 0 4 2 26 26 8 7 11 11-1 4-7 8-3 3-4-2-16-15-9-10-14-14 4-16z" 
    fill="#CF273C"/>
  <path class="name" transform="translate(814,1201)" d="m0 0h8l11 4 5 4 5 8 2 9v7l-3 10-4 6-7 6-5 2h-15l-9-4-7-8-3-7-1-5 1-13 4-8 5-5 6-4zm-1 8-6 3-6 7-1 3v14l4 8 5 4 5 2h9l6-3 5-6 2-5v-14l-4-7-6-5-2-1z" 
    fill="#132A54"/>
  <path transform="translate(655,327)" d="m0 0 7 6 32 32v1h-57l3-10 7-16z" 
    fill="#2D407D"/>
  <path transform="translate(726,276)" d="m0 0h1v57l-7-6-31-31 1-3 14-8 16-7z" 
    fill="#2D3B79"/>
  <path class="name" transform="translate(578,1072)" d="m0 0h8l10 23 8 19 3-4 15-37 1-1h8l-1 5-18 43-9 20-6 7-5 2-10-1-3-2 1-5 2-2 2 1h8l4-4 3-7v-6l-18-41-3-7z" 
    fill="#112853"/>
  <path transform="translate(638,442)" d="m0 0h56l-6 7-30 30h-2l-8-13-7-14z" 
    fill="#2F3D7B"/>
  <path transform="translate(658,324)" d="m0 0 7 6 47 47v1h-78l3-12 56-1-37-37z" 
    fill="#fff"/>
  <path transform="translate(803,278)" d="m0 0 10 3 16 8 10 6-1 4-25 25-6 5-4 4z" 
    fill="#303978"/>
  <path transform="translate(843,299)" d="m0 0 5 3 10 9-6 7-36 36h-2l-6-16 1-4 15-16z" 
    fill="#CF273C"/>
  <path transform="translate(726,475)" d="m0 0h1v53l-9-2-18-8-9-6 2-5 11-11 8-7z" 
    fill="#2E3978"/>
  <path class="name" transform="translate(885,1201)" d="m0 0 11 1 8 5 4 8 1 4v37h-8l-1-34-2-7-4-4-2-1h-11l-6 4-3 7-1 35h-8v-53h7l2 6 5-5z" 
    fill="#0E234C"/>
  <path class="name" transform="translate(757,1071)" d="m0 0h11l7 3 5 5 3 7v40h-7l-1-30-2-10-2-4-7-3-9 1-5 3-3 6-1 6-1 31h-8v-54h8v7l9-7z" 
    fill="#102953"/>
  <path transform="translate(871,331)" d="m0 0 4 2 9 17 4 11v5h-51l3-5 14-14 8-7z" 
    fill="#313A79"/>
  <path transform="translate(836,441)" d="m0 0h52l-2 9-8 16-6 10-4-2-28-28-4-3z" 
    fill="#333C7A"/>
  <path class="name" transform="translate(753,1201)" d="m0 0h8l9 3 5 5 1 4-7 2-5-5-9-1-7 3-1 1v6l6 4 13 4 6 4 4 5 1 8-3 7-5 4-4 2h-16l-8-4-5-6 1-3 6-2 4 5 4 2h11l5-3 1-6-4-4-8-3-11-4-5-4-2-4v-9l3-5 5-4z" 
    fill="#112853"/>
  <path class="name" transform="translate(697,1201)" d="m0 0h8l9 3 5 5 1 4-7 2-5-5-9-1-7 3-1 7 6 4 13 4 6 4 4 5 1 9-3 6-5 4-4 2h-16l-8-4-5-6 1-3 6-2 4 5 4 2h11l5-3 1-6-4-4-8-3-11-4-5-5-2-3v-9l4-6 6-4z" 
    fill="#112853"/>
  <path class="name" transform="translate(944,1201)" d="m0 0h7l9 3 5 4 2 4-5 3-4-2-4-3-9-1-7 3-1 7 6 4 13 4 6 4 4 5 1 3v7l-4 6-5 4-3 1h-15l-10-5-4-5 1-3 6-2 4 5 4 2h12l5-4-1-7-4-3-18-6-6-6-1-3v-7l3-6 5-4z" 
    fill="#112752"/>
  <path class="name" transform="translate(944,1071)" d="m0 0h13l9 4 4 5-1 3-6 2-5-5-3-1h-9l-4 2-1 2v6l4 3 16 5 7 6 2 4v10l-6 7-7 3h-12l-8-3-6-5-1-5 4-2h3l5 5 4 2h9l6-2v-9l-6-4-13-4-6-4-4-5v-10l4-6z" 
    fill="#112752"/>
  <path transform="translate(803,475)" d="m0 0 1 2 4 2 29 29-1 4-18 10-13 5h-2z" 
    fill="#323B79"/>
  <path class="name" transform="translate(559,1181)" d="m0 0h8l1 67 35 1v7h-44z" 
    fill="#0D2149"/>
  <path class="name" transform="translate(873,1050)" d="m0 0h7v76h-8v-75z" 
    fill="#0F2F57"/>
  <path class="name" transform="translate(903,1072)" d="m0 0h7v54h-8v-52z" 
    fill="#102953"/>
  <path transform="translate(764,271)" d="m0 0 17 1 9 2v31l-5-5-8-11-11-14z" 
    fill="#CE273C"/>
  <path transform="translate(789,499)" d="m0 0h1v31l-5 2-7 1h-14l6-8 13-17z" 
    fill="#CE273C"/>
  <path transform="translate(726,475)" d="m0 0v3l-34 34v-3l7-8 16-15z" 
    fill="#256797"/>
  <path class="name" transform="translate(904,1049)" d="m0 0h5l2 2v6l-3 2-5-1-2-3 1-4z" 
    fill="#132955"/>
  <style>
    .name { fill: hsla(220, 70%, 17%, 1); }
    .m { fill: hsla(220, 70%, 17%, 1); }

    @media (prefers-color-scheme: dark) {
      .name { fill: hsla(14, 87%, 97%, 1); }
      .m { fill: hsla(14, 87%, 97%, 1); }
    }
  </style>
</svg>
