<?xml version="1.0" encoding="UTF-8"?>
<svg version="1.1" viewBox="0 0 1616 2048" width="600" height="760" xmlns="http://www.w3.org/2000/svg">
  <path class="m" transform="translate(461,728)" d="m0 0h15l10 5 5 5 5 8 10 23 16 39 18 43 17 41 35 84 18 43 15 36 17 41 18 43 30 72 17 41 18 43 50 120 18 43 12 29v3l4-1 17-40 35-84 18-43 16-38 12-29 13-31 35-84 18-43 11-26 12-29 13-31 20-48 54-129 20-48 18-43 6-8 10-6 3-1h15l10 5 7 8 4 9v13l-10 25-18 43-4 12h182l3 5 23 108 19 89 12 56 20 94 19 89 16 74 12 57 28 131 16 75 34 159 17 80 29 136 6 27v6h-259l-3-7-15-71-21-99-18-85-24-113-14-66-18-85-21-99-10-47-1-5-5 1-1 5-17 41-20 48-17 41-40 96-17 41-18 43-17 41-18 43-17 41-20 48-17 41-18 43-30 72-8 19-1 1h-175l-6-12-16-39-17-41-15-36-17-41-15-36-14-34-15-36-12-29-15-36-19-46-17-41-15-36-68-164-13-31-3-6h-3l-9 40-12 57-28 131-16 74-12 57-33 155-24 112-10 46-1 4h-260l5-25 23-108 22-103 26-122 25-117 51-239 22-103 42-196 19-90 14-65 4-17 2-1h182l-7-19-15-36-10-25-1-8 3-10 5-8 7-6z" 
    fill="#0C2f248"/>
  <path transform="translate(800,113)" d="m0 0h24l31 3 25 4 5 2 8 3 23 6 8 1 21 8 26 12 22 12 21 14 12 10 9 6 13 11 13 12 13 16 10 11 15 20 10 13 13 22 12 24 11 28 5 17 10 42 3 23 1 13v43l-2 21-4 25-11 42-9 25-11 24-12 22-12 18-11 15-10 13-12 13-9 10-13 11-11 10-9 7-13 10-14 10-24 14-27 13-24 9-25 7-23 6-33 5-14 1h-41l-30-3-23-5-33-8-23-8-29-13-22-12-15-10-19-13-17-14-13-12-12-13-7-7-9-11-10-12-11-15-12-19-12-22-11-25-8-22-10-38-5-32-1-10v-59l4-29 7-31 6-21 8-22 9-20 12-23 12-19 7-9 8-12 8-10 9-10 7-8 7-7 9-7 7-7 14-11 17-13 4-4 19-12 24-13 18-8 26-10 9-3h7l33-8 9-3 27-3z" 
    fill="#E22138"/>
  <path transform="translate(461,728)" d="m0 0h15l10 5 5 5 5 8 10 23 16 39 18 43 17 41 35 84 18 43 15 36 17 41 18 43 30 72 17 41 18 43 50 120 18 43 12 29v3l4-1 17-40 35-84 18-43 16-38 12-29 13-31 35-84 18-43 11-26 12-29 13-31 20-48 54-129 20-48 18-43 6-8 10-6 3-1h15l10 5 7 8 4 9v13l-10 25-18 43-6 16-15 36-19 45-12 29-10 24-36 86-13 31-15 36-18 43-17 41-18 43-10 24-11 26-17 41-19 45-10 24-12 29-18 43-17 41-15 36-8 17-7 7-10 5-3 1h-9l-11-4-8-7-8-16-11-26-17-41-25-60-18-43-17-41-18-43-12-29-18-43-8-20-5-12-12-28-17-41-15-36-18-43-17-41-18-43-17-41-18-43-24-58-6-17-15-36-10-25-1-8 3-10 5-8 7-6z" 
    fill="#C2081E"/>
  <path transform="translate(1064,223)" d="m0 0h2l8 10 10 11 15 20 10 13 13 22 12 24 11 28 5 17 10 42 3 23 1 13v43l-2 21-4 25-11 42-9 25-11 24-12 22-12 18-10 14-5-3-64-64-11-8v-2l-4-2-13-13-7-8-31-31-5-8 1-3 14-2 1-5-5-2-1-4v-3-11l1-1 1-21-2-9 1-13-1-12-1-13v-8l2-16 3-1v-2l18-7-1-3-10-1-83-1-3-3 9-10z" 
    fill="#CE2C40"/>
  <path transform="translate(782,2)" d="m0 0h59l19 2 11 3 8 6 5 7 3 10v7l-3 9-6 8-8 6-7 2h-15l-14-1h-50l-29 3-24 4-26 6-29 9-28 11-25 12-23 13-27 18-13 10-16 13-17 16-15 15-7 8-11 13-13 17-12 18-12 20-14 27-10 23-8 23-7 23-6 27-6 38-5 10-9 8-8 3h-13l-9-4-7-6-5-9-2-7 1-13 6-36 7-30 9-29 11-29 7-16 8-16 12-22 12-19 8-12 11-15 11-14 11-13 16-17 18-18 8-7 15-13 20-15 16-11 19-12 29-16 24-11 23-9 33-11 32-8 36-6z" 
    fill="#C2091F"/>
  <path transform="translate(746,121)" d="m0 0h3v277l-4 1-8-6-175-175v-2l9-7 7-7 14-11 17-13 4-4 19-12 24-13 18-8 26-10 9-3h7z" 
    fill="#FDFDFD"/>
  <path transform="translate(465,538)" d="m0 0 278 1 1 3-3 5-5 4-7 8-160 160h-2l-1 3-12-13-7-7-9-11-10-12-11-15-12-19-12-22-11-25-8-22-9-34z" 
    fill="#FEFEFE"/>
  <path transform="translate(1064,223)" d="m0 0h2l8 10 10 11 15 20 10 13 13 22 12 24 11 28 5 17 8 33-1 2h-266l-3-3 9-10z" 
    fill="#FEFEFE"/>
  <path transform="translate(885,547)" d="m0 0 5 2 26 26 8 7 53 53 4 6 62 62 8 6 6 5 5-1 6-5-2 4-12 11-8 7-13 11-17 13-10 8-22 13-23 12-26 11-15 5-31 8-5 1v-249z" 
    fill="#FEFEFE"/>
  <path transform="translate(530,252)" d="m0 0 70 70 5 8 67 67 2 5-1 1h-209l1-9 8-32 8-23 10-23 13-25 12-19 7-9z" 
    fill="#FEFEFE"/>
  <path transform="translate(885,123)" d="m0 0 28 7 11 2 21 8 26 12 22 12 21 14 12 10 2 2-73 73-1 2h-2l-2 4-18 18-7 8-27 27-8 6-5 1-1-7v-192z" 
    fill="#FEFEFE"/>
  <path transform="translate(744,614)" d="m0 0 5 1v199l-12-2-33-8-23-8-29-13-22-12-15-10-13-9 4-2 2-4 39-39 8-7 58-58 8-6 21-21z" 
    fill="#FEFEFE"/>
  <path transform="translate(954,539)" d="m0 0h202l-1 8-9 33-9 24-10 22-12 22-12 18-10 14-5-3-64-64-11-8v-2l-4-2-13-13-7-8-31-31-5-8z" 
    fill="#FEFEFE"/>
  <path transform="translate(965,556)" d="m0 0 7 6 24 24 7 8 8 8 6 5 10 8 63 63 2 1-2 5-9 11-11 12-9 8-5-1-5-4-11-9-62-62-1-5v-3h-3l-6-9v-2l-3-1v-2h-2l-7-8-8-10-2-7 4-18 1-2h2l2-9 2-1h12l-4-4z" 
    fill="#CE2C40"/>
  <path transform="translate(709,128)" d="m0 0h4l1 5-1 146-7-6-95-95 2-4 19-12 24-13 18-8 26-10z" 
    fill="#2E397A"/>
  <path transform="translate(521,267)" d="m0 0 8 6 76 76 7 8 8 7 1 3-148 1 1-9 7-20 10-23 13-25 12-19z" 
    fill="#303979"/>
  <path transform="translate(918,131)" d="m0 0 9 2 25 10 25 12 21 12 16 11 4 3-1 4-11 11h-2v2l-8 7-51 51-6 4-11 11-7 8h-2l-1-30z" 
    fill="#303979"/>
  <path transform="translate(475,574)" d="m0 0h149l-6 7-91 91-4-2-5-5-10-15-10-18-8-16-10-23-5-14z" 
    fill="#2F3B7B"/>
  <path transform="translate(1027,190)" d="m0 0 4 1 10 8 10 9 8 7 6 7-6 7-100 100-1-2-3-1v2l-9 2-4-3-2-5-2-9-2-2-2-5v-13l1-5h-2l-2 1 2-4 18-18 1-2h2l2-4z" 
    fill="#CE2C40"/>
  <path transform="translate(1104,272)" d="m0 0 5 5 13 22 12 24 11 28 4 13v5h-140l2-5 7-8 38-38 8-6z" 
    fill="#2E3979"/>
  <path transform="translate(712,665)" d="m0 0h1v141l-12-3-20-7-29-13-22-12-12-8v-4l9-10 81-81z" 
    fill="#303A7A"/>
  <path transform="translate(1024,571)" d="m0 0h124l-3 12-8 21-10 22-12 22-12 18h-4l-11-12-17-17-8-7-46-46-6-4-6-7v-1z" 
    fill="#323979"/>
  <path transform="translate(919,664)" d="m0 0 9 6 83 83v5l-10 7-24 14-27 13-24 9-8 1v-126z" 
    fill="#313979"/>
  <path transform="translate(800,113)" d="m0 0h24l31 3 25 4 5 2-1 100h-1l-1-23-7 2h-2v-2h-2l-4-5-3-6-1-3-4-2-5-9v-2h-3l-3-5-9-13-3-2v-3h-2l-3-4v-2h-2l-6-11-1-5 3-1 2-6v-2h-4l-1-4h-22z" 
    fill="#CE2D41"/>
  <path transform="translate(883,705)" d="m0 0h1v107l-12 3-27 4-14 1h-27v-1l16-1-3-7v-3l8-6 7-9h2l2-4 3-1 2-4 8-10 20-28 1-2h2l1-4 4-4h5z" 
    fill="#CE2D41"/>
  <path transform="translate(979,636)" d="m0 0 9 6 5 5 11 12 5 4 6 7 7 6 6 7 5 4v2l3 1v2h2v2l3 1 5 6 6 5v2h2l1 2 4 2v2l2 1-5-1-5-4-11-9-56-56-3-5z" 
    fill="#DF2239"/>
  <path transform="translate(1027,190)" d="m0 0 4 1 3 2-1 3h-6l-2-4z" 
    fill="#CE2C40"/>
  <path transform="translate(1027,190)" d="m0 0 4 1 3 2-1 3h-6l-1-5z" 
    fill="#E2273E"/>
  <style>
    .m { fill: hsla(220, 70%, 17%, 1); }

    @media (prefers-color-scheme: dark) {
      .m { fill: hsla(14, 87%, 97%, 1); }
    }
  </style>
</svg>
